<svg xmlns="http://www.w3.org/2000/svg" xmlns:xlink="http://www.w3.org/1999/xlink" width="150" zoomAndPan="magnify" viewBox="0 0 112.5 112.499997" height="150" preserveAspectRatio="xMidYMid meet" version="1.0"><defs><g/></defs><g fill="#000000" fill-opacity="1"><g transform="translate(25.869476, 69.210184)"><g><path d="M 2.875 -12.84375 C 2.445312 -12.5625 1.976562 -12.578125 1.46875 -12.890625 C 1.226562 -13.046875 1.050781 -13.113281 0.9375 -13.09375 C 0.84375 -13.082031 0.644531 -12.976562 0.34375 -12.78125 C -0.257812 -12.382812 -0.648438 -11.457031 -0.828125 -10 C -1.066406 -7.96875 -0.8125 -6.378906 -0.0625 -5.234375 C 0.28125 -4.703125 0.75 -4.367188 1.34375 -4.234375 C 1.9375 -4.097656 2.476562 -4.191406 2.96875 -4.515625 C 3.445312 -4.828125 3.847656 -5.265625 4.171875 -5.828125 C 4.285156 -6.035156 4.492188 -6.503906 4.796875 -7.234375 C 4.992188 -7.734375 5.191406 -8.046875 5.390625 -8.171875 C 5.671875 -8.359375 5.988281 -8.410156 6.34375 -8.328125 C 6.65625 -8.265625 6.894531 -8.109375 7.0625 -7.859375 C 7.25 -7.566406 7.285156 -7.234375 7.171875 -6.859375 C 6.585938 -4.890625 5.613281 -3.457031 4.25 -2.5625 C 3.175781 -1.851562 2.015625 -1.644531 0.765625 -1.9375 C -0.441406 -2.226562 -1.382812 -2.882812 -2.0625 -3.90625 C -3.113281 -5.5 -3.492188 -7.59375 -3.203125 -10.1875 C -2.953125 -12.382812 -2.203125 -13.894531 -0.953125 -14.71875 C -0.742188 -14.851562 -0.546875 -14.96875 -0.359375 -15.0625 C -0.179688 -15.15625 -0.0195312 -15.238281 0.125 -15.3125 C 0.195312 -15.65625 0.378906 -15.925781 0.671875 -16.125 C 1.160156 -16.4375 1.648438 -16.347656 2.140625 -15.859375 C 2.484375 -15.515625 2.832031 -15.078125 3.1875 -14.546875 C 3.34375 -14.304688 3.414062 -14.039062 3.40625 -13.75 C 3.394531 -13.375 3.21875 -13.070312 2.875 -12.84375 Z M 2.875 -12.84375 "/></g></g></g><g fill="#000000" fill-opacity="1"><g transform="translate(34.943573, 63.224462)"><g><path d="M 3.953125 -2 C 3.078125 -1.425781 2.125 -1.226562 1.09375 -1.40625 C -0.0507812 -1.613281 -1.003906 -2.257812 -1.765625 -3.34375 C -2.492188 -4.382812 -2.828125 -5.519531 -2.765625 -6.75 C -2.679688 -8.207031 -1.992188 -9.359375 -0.703125 -10.203125 C 0.253906 -10.835938 1.269531 -10.957031 2.34375 -10.5625 C 3.289062 -10.207031 4.101562 -9.523438 4.78125 -8.515625 C 5.507812 -7.398438 5.84375 -6.253906 5.78125 -5.078125 C 5.6875 -3.765625 5.078125 -2.738281 3.953125 -2 Z M 0.453125 -8.25 C -0.128906 -7.875 -0.414062 -7.300781 -0.40625 -6.53125 C -0.382812 -5.894531 -0.175781 -5.269531 0.21875 -4.65625 C 0.601562 -4.082031 1.054688 -3.75 1.578125 -3.65625 C 1.992188 -3.582031 2.367188 -3.65625 2.703125 -3.875 C 3.117188 -4.15625 3.394531 -4.535156 3.53125 -5.015625 C 3.65625 -5.578125 3.546875 -6.148438 3.203125 -6.734375 C 2.242188 -8.316406 1.328125 -8.820312 0.453125 -8.25 Z M 0.453125 -8.25 "/></g></g></g><g fill="#000000" fill-opacity="1"><g transform="translate(42.656915, 58.136362)"><g><path d="M -1.609375 -8.046875 C -1.421875 -9.359375 -1.007812 -10.222656 -0.375 -10.640625 C 0.363281 -11.128906 1.09375 -11.207031 1.8125 -10.875 C 1.914062 -11.320312 2.101562 -11.726562 2.375 -12.09375 C 2.644531 -12.457031 2.988281 -12.78125 3.40625 -13.0625 C 4.332031 -13.664062 5.273438 -13.613281 6.234375 -12.90625 C 6.421875 -12.757812 6.945312 -12.179688 7.8125 -11.171875 C 8.457031 -10.484375 9.476562 -9.3125 10.875 -7.65625 C 11.082031 -7.382812 11.140625 -7.09375 11.046875 -6.78125 C 10.960938 -6.476562 10.78125 -6.234375 10.5 -6.046875 C 9.945312 -5.679688 9.445312 -5.738281 9 -6.21875 C 8.582031 -6.65625 8.039062 -7.289062 7.375 -8.125 C 6.613281 -9.039062 6.066406 -9.6875 5.734375 -10.0625 C 5.046875 -10.832031 4.597656 -11.148438 4.390625 -11.015625 C 4.285156 -10.941406 4.109375 -10.664062 3.859375 -10.1875 C 3.617188 -9.71875 3.457031 -9.34375 3.375 -9.0625 C 3.726562 -8.519531 4.3125 -7.78125 5.125 -6.84375 C 5.9375 -5.882812 6.515625 -5.144531 6.859375 -4.625 C 7.035156 -4.351562 7.09375 -4.0625 7.03125 -3.75 C 6.96875 -3.445312 6.789062 -3.203125 6.5 -3.015625 C 6.207031 -2.828125 5.910156 -2.757812 5.609375 -2.8125 C 5.304688 -2.875 5.066406 -3.039062 4.890625 -3.3125 C 4.535156 -3.863281 3.953125 -4.628906 3.140625 -5.609375 C 2.328125 -6.597656 1.738281 -7.363281 1.375 -7.90625 C 1.175781 -8.207031 0.988281 -8.4375 0.8125 -8.59375 C 0.46875 -7.894531 0.265625 -6.988281 0.203125 -5.875 C 0.191406 -5.820312 0.179688 -5.75 0.171875 -5.65625 C 0.785156 -4.664062 1.273438 -3.894531 1.640625 -3.34375 C 1.734375 -3.207031 1.847656 -3.023438 1.984375 -2.796875 C 2.117188 -2.566406 2.222656 -2.394531 2.296875 -2.28125 C 2.460938 -2.03125 2.492188 -1.765625 2.390625 -1.484375 C 2.296875 -1.210938 2.101562 -0.984375 1.8125 -0.796875 C 1.414062 -0.523438 1.03125 -0.519531 0.65625 -0.78125 C 0.394531 -0.957031 0.09375 -1.304688 -0.25 -1.828125 L -2 -4.5 C -2.15625 -4.726562 -2.394531 -5.066406 -2.71875 -5.515625 C -3.050781 -5.960938 -3.300781 -6.304688 -3.46875 -6.546875 C -3.75 -6.972656 -3.921875 -7.40625 -3.984375 -7.84375 C -4.085938 -8.40625 -3.96875 -8.796875 -3.625 -9.015625 C -3.363281 -9.191406 -3.054688 -9.242188 -2.703125 -9.171875 C -2.359375 -9.109375 -2.101562 -8.953125 -1.9375 -8.703125 C -2.007812 -8.804688 -1.898438 -8.585938 -1.609375 -8.046875 Z M -1.609375 -8.046875 "/></g></g></g><g fill="#000000" fill-opacity="1"><g transform="translate(54.05146, 50.619959)"><g><path d="M -3.3125 -10.171875 C -3.613281 -9.960938 -3.945312 -9.890625 -4.3125 -9.953125 C -4.6875 -10.015625 -4.972656 -10.191406 -5.171875 -10.484375 C -5.359375 -10.785156 -5.40625 -11.109375 -5.3125 -11.453125 C -5.21875 -11.804688 -5.019531 -12.085938 -4.71875 -12.296875 C -4.414062 -12.492188 -4.082031 -12.566406 -3.71875 -12.515625 C -3.351562 -12.460938 -3.078125 -12.285156 -2.890625 -11.984375 C -2.691406 -11.691406 -2.632812 -11.363281 -2.71875 -11 C -2.8125 -10.644531 -3.007812 -10.367188 -3.3125 -10.171875 Z M 0.75 -5.328125 C 0.9375 -5.054688 1.238281 -4.625 1.65625 -4.03125 C 2.070312 -3.4375 2.367188 -3.007812 2.546875 -2.75 C 2.722656 -2.46875 2.773438 -2.175781 2.703125 -1.875 C 2.640625 -1.570312 2.460938 -1.328125 2.171875 -1.140625 C 1.890625 -0.953125 1.59375 -0.882812 1.28125 -0.9375 C 0.976562 -0.988281 0.738281 -1.15625 0.5625 -1.4375 C 0.382812 -1.695312 0.0859375 -2.125 -0.328125 -2.71875 C -0.742188 -3.3125 -1.046875 -3.742188 -1.234375 -4.015625 C -1.515625 -4.441406 -1.835938 -4.988281 -2.203125 -5.65625 C -2.578125 -6.332031 -2.90625 -6.882812 -3.1875 -7.3125 C -3.363281 -7.582031 -3.414062 -7.867188 -3.34375 -8.171875 C -3.28125 -8.484375 -3.109375 -8.734375 -2.828125 -8.921875 C -2.535156 -9.109375 -2.234375 -9.171875 -1.921875 -9.109375 C -1.617188 -9.054688 -1.378906 -8.894531 -1.203125 -8.625 C -0.921875 -8.195312 -0.59375 -7.644531 -0.21875 -6.96875 C 0.144531 -6.300781 0.46875 -5.753906 0.75 -5.328125 Z M 0.75 -5.328125 "/></g></g></g><g fill="#000000" fill-opacity="1"><g transform="translate(58.162375, 47.908196)"><g><path d="M 6.703125 -3.6875 C 6.109375 -3.300781 5.597656 -3.378906 5.171875 -3.921875 C 4.773438 -4.367188 4.375 -4.816406 3.96875 -5.265625 C 3.5625 -5.753906 3.207031 -6.226562 2.90625 -6.6875 C 2.820312 -6.8125 2.6875 -7.023438 2.5 -7.328125 C 2.320312 -7.640625 2.191406 -7.863281 2.109375 -8 C 2.078125 -8.03125 2.019531 -8.113281 1.9375 -8.25 C 1.863281 -8.394531 1.800781 -8.507812 1.75 -8.59375 C 1.488281 -8.988281 1.253906 -9.117188 1.046875 -8.984375 C 0.609375 -8.691406 0.347656 -8.148438 0.265625 -7.359375 C 0.179688 -6.566406 0.273438 -5.695312 0.546875 -4.75 C 0.648438 -4.582031 0.769531 -4.359375 0.90625 -4.078125 C 1.019531 -3.835938 1.144531 -3.617188 1.28125 -3.421875 C 1.375 -3.285156 1.523438 -3.09375 1.734375 -2.84375 C 1.941406 -2.59375 2.085938 -2.40625 2.171875 -2.28125 C 2.347656 -2.007812 2.398438 -1.71875 2.328125 -1.40625 C 2.265625 -1.101562 2.085938 -0.859375 1.796875 -0.671875 C 1.515625 -0.484375 1.21875 -0.414062 0.90625 -0.46875 C 0.601562 -0.53125 0.363281 -0.695312 0.1875 -0.96875 C 0.101562 -1.09375 -0.0390625 -1.28125 -0.25 -1.53125 C -0.457031 -1.78125 -0.609375 -1.972656 -0.703125 -2.109375 C -1.003906 -2.566406 -1.390625 -3.226562 -1.859375 -4.09375 C -2.328125 -4.957031 -2.710938 -5.617188 -3.015625 -6.078125 C -3.117188 -6.222656 -3.269531 -6.429688 -3.46875 -6.703125 C -3.664062 -6.972656 -3.8125 -7.179688 -3.90625 -7.328125 C -4.082031 -7.585938 -4.128906 -7.867188 -4.046875 -8.171875 C -3.972656 -8.472656 -3.796875 -8.71875 -3.515625 -8.90625 C -2.890625 -9.320312 -2.3125 -9.171875 -1.78125 -8.453125 L -1.734375 -8.375 C -1.492188 -9.53125 -0.984375 -10.363281 -0.203125 -10.875 C 0.691406 -11.46875 1.566406 -11.503906 2.421875 -10.984375 C 2.972656 -10.617188 3.582031 -9.929688 4.25 -8.921875 L 4.578125 -8.40625 C 4.722656 -8.195312 4.828125 -8.046875 4.890625 -7.953125 C 5.128906 -7.578125 5.492188 -7.128906 5.984375 -6.609375 C 6.484375 -6.097656 6.851562 -5.65625 7.09375 -5.28125 C 7.269531 -5.019531 7.316406 -4.734375 7.234375 -4.421875 C 7.160156 -4.117188 6.984375 -3.875 6.703125 -3.6875 Z M 6.703125 -3.6875 "/></g></g></g><g fill="#000000" fill-opacity="1"><g transform="translate(65.839904, 42.84372)"><g><path d="M 4.5625 -9.125 C 5.09375 -7.863281 5.753906 -6.601562 6.546875 -5.34375 C 7.503906 -3.769531 7.984375 -2.476562 7.984375 -1.46875 C 7.972656 -0.125 7.175781 1.070312 5.59375 2.125 C 3.726562 3.34375 2.550781 3.582031 2.0625 2.84375 C 1.882812 2.582031 1.828125 2.316406 1.890625 2.046875 C 1.953125 1.785156 2.125 1.5625 2.40625 1.375 C 2.613281 1.238281 2.941406 1.078125 3.390625 0.890625 C 3.847656 0.703125 4.234375 0.503906 4.546875 0.296875 C 5.253906 -0.171875 5.632812 -0.734375 5.6875 -1.390625 C 5.726562 -2.035156 5.472656 -2.835938 4.921875 -3.796875 C 4.835938 -3.390625 4.6875 -3.023438 4.46875 -2.703125 C 4.25 -2.378906 3.957031 -2.097656 3.59375 -1.859375 C 2.644531 -1.222656 1.664062 -1.015625 0.65625 -1.234375 C -0.34375 -1.460938 -1.160156 -2.0625 -1.796875 -3.03125 C -2.648438 -4.332031 -2.945312 -5.644531 -2.6875 -6.96875 C -2.414062 -8.34375 -1.578125 -9.492188 -0.171875 -10.421875 C 0.265625 -10.710938 0.679688 -10.910156 1.078125 -11.015625 C 1.484375 -11.117188 1.863281 -11.125 2.21875 -11.03125 C 2.875 -11.363281 3.414062 -11.207031 3.84375 -10.5625 C 4.050781 -10.238281 4.289062 -9.757812 4.5625 -9.125 Z M 0.828125 -8.734375 C 0.015625 -8.203125 -0.429688 -7.523438 -0.515625 -6.703125 C -0.617188 -5.953125 -0.414062 -5.191406 0.09375 -4.421875 C 0.46875 -3.847656 0.859375 -3.488281 1.265625 -3.34375 C 1.671875 -3.195312 2.085938 -3.265625 2.515625 -3.546875 C 2.910156 -3.804688 3.160156 -4.296875 3.265625 -5.015625 C 3.347656 -5.691406 3.28125 -6.257812 3.0625 -6.71875 C 2.84375 -7.238281 2.472656 -8.015625 1.953125 -9.046875 C 1.722656 -9.046875 1.515625 -9.015625 1.328125 -8.953125 C 1.140625 -8.898438 0.972656 -8.828125 0.828125 -8.734375 Z M 0.828125 -8.734375 "/></g></g></g><g fill="#000000" fill-opacity="1"><g transform="translate(73.631441, 37.704038)"><g/></g></g><g fill="#000000" fill-opacity="1"><g transform="translate(49.780014, 82.767905)"><g><path d="M 4.390625 -2.265625 C 3.171875 -1.460938 2.03125 -1.101562 0.96875 -1.1875 C 0.09375 -1.238281 -0.535156 -1.5625 -0.921875 -2.15625 C -1.117188 -2.445312 -1.191406 -2.75 -1.140625 -3.0625 C -1.097656 -3.382812 -0.914062 -3.65625 -0.59375 -3.875 C -0.164062 -4.15625 0.296875 -4.140625 0.796875 -3.828125 C 1.441406 -3.429688 2.242188 -3.550781 3.203125 -4.1875 C 4.035156 -4.726562 4.71875 -5.425781 5.25 -6.28125 C 5.8125 -7.175781 5.945312 -7.847656 5.65625 -8.296875 C 5.257812 -8.890625 4.75 -9.125 4.125 -9 C 3.675781 -8.894531 2.910156 -8.503906 1.828125 -7.828125 C 0.992188 -7.304688 0.148438 -6.972656 -0.703125 -6.828125 C -1.847656 -6.640625 -2.65625 -6.921875 -3.125 -7.671875 C -3.71875 -8.609375 -3.785156 -9.789062 -3.328125 -11.21875 C -2.867188 -12.644531 -2.046875 -13.75 -0.859375 -14.53125 C -0.390625 -14.832031 0.257812 -15.101562 1.09375 -15.34375 C 2.125 -15.632812 2.753906 -15.609375 2.984375 -15.265625 C 3.140625 -15.015625 3.195312 -14.738281 3.15625 -14.4375 C 3.101562 -14.09375 2.925781 -13.820312 2.625 -13.625 C 2.40625 -13.476562 2.039062 -13.300781 1.53125 -13.09375 C 1.019531 -12.894531 0.648438 -12.722656 0.421875 -12.578125 C -0.179688 -12.160156 -0.671875 -11.625 -1.046875 -10.96875 C -1.421875 -10.300781 -1.492188 -9.789062 -1.265625 -9.4375 C -1.148438 -9.257812 -0.960938 -9.164062 -0.703125 -9.15625 C -0.453125 -9.15625 -0.132812 -9.25 0.25 -9.4375 C 0.875 -9.8125 1.503906 -10.179688 2.140625 -10.546875 C 3.265625 -11.160156 4.296875 -11.410156 5.234375 -11.296875 C 6.296875 -11.171875 7.160156 -10.601562 7.828125 -9.59375 C 8.640625 -8.351562 8.554688 -6.957031 7.578125 -5.40625 C 6.828125 -4.21875 5.765625 -3.171875 4.390625 -2.265625 Z M 4.390625 -2.265625 "/></g></g></g><g fill="#000000" fill-opacity="1"><g transform="translate(59.949875, 76.059364)"><g><path d="M 3.953125 -2 C 3.078125 -1.425781 2.125 -1.226562 1.09375 -1.40625 C -0.0507812 -1.613281 -1.003906 -2.257812 -1.765625 -3.34375 C -2.492188 -4.382812 -2.828125 -5.519531 -2.765625 -6.75 C -2.679688 -8.207031 -1.992188 -9.359375 -0.703125 -10.203125 C 0.253906 -10.835938 1.269531 -10.957031 2.34375 -10.5625 C 3.289062 -10.207031 4.101562 -9.523438 4.78125 -8.515625 C 5.507812 -7.398438 5.84375 -6.253906 5.78125 -5.078125 C 5.6875 -3.765625 5.078125 -2.738281 3.953125 -2 Z M 0.453125 -8.25 C -0.128906 -7.875 -0.414062 -7.300781 -0.40625 -6.53125 C -0.382812 -5.894531 -0.175781 -5.269531 0.21875 -4.65625 C 0.601562 -4.082031 1.054688 -3.75 1.578125 -3.65625 C 1.992188 -3.582031 2.367188 -3.65625 2.703125 -3.875 C 3.117188 -4.15625 3.394531 -4.535156 3.53125 -5.015625 C 3.65625 -5.578125 3.546875 -6.148438 3.203125 -6.734375 C 2.242188 -8.316406 1.328125 -8.820312 0.453125 -8.25 Z M 0.453125 -8.25 "/></g></g></g><g fill="#000000" fill-opacity="1"><g transform="translate(67.663216, 70.971264)"><g><path d="M 3.953125 -2 C 3.078125 -1.425781 2.125 -1.226562 1.09375 -1.40625 C -0.0507812 -1.613281 -1.003906 -2.257812 -1.765625 -3.34375 C -2.492188 -4.382812 -2.828125 -5.519531 -2.765625 -6.75 C -2.679688 -8.207031 -1.992188 -9.359375 -0.703125 -10.203125 C 0.253906 -10.835938 1.269531 -10.957031 2.34375 -10.5625 C 3.289062 -10.207031 4.101562 -9.523438 4.78125 -8.515625 C 5.507812 -7.398438 5.84375 -6.253906 5.78125 -5.078125 C 5.6875 -3.765625 5.078125 -2.738281 3.953125 -2 Z M 0.453125 -8.25 C -0.128906 -7.875 -0.414062 -7.300781 -0.40625 -6.53125 C -0.382812 -5.894531 -0.175781 -5.269531 0.21875 -4.65625 C 0.601562 -4.082031 1.054688 -3.75 1.578125 -3.65625 C 1.992188 -3.582031 2.367188 -3.65625 2.703125 -3.875 C 3.117188 -4.15625 3.394531 -4.535156 3.53125 -5.015625 C 3.65625 -5.578125 3.546875 -6.148438 3.203125 -6.734375 C 2.242188 -8.316406 1.328125 -8.820312 0.453125 -8.25 Z M 0.453125 -8.25 "/></g></g></g><g fill="#000000" fill-opacity="1"><g transform="translate(75.376558, 65.883163)"><g><path d="M 6.703125 -3.6875 C 6.109375 -3.300781 5.597656 -3.378906 5.171875 -3.921875 C 4.773438 -4.367188 4.375 -4.816406 3.96875 -5.265625 C 3.5625 -5.753906 3.207031 -6.226562 2.90625 -6.6875 C 2.820312 -6.8125 2.6875 -7.023438 2.5 -7.328125 C 2.320312 -7.640625 2.191406 -7.863281 2.109375 -8 C 2.078125 -8.03125 2.019531 -8.113281 1.9375 -8.25 C 1.863281 -8.394531 1.800781 -8.507812 1.75 -8.59375 C 1.488281 -8.988281 1.253906 -9.117188 1.046875 -8.984375 C 0.609375 -8.691406 0.347656 -8.148438 0.265625 -7.359375 C 0.179688 -6.566406 0.273438 -5.695312 0.546875 -4.75 C 0.648438 -4.582031 0.769531 -4.359375 0.90625 -4.078125 C 1.019531 -3.835938 1.144531 -3.617188 1.28125 -3.421875 C 1.375 -3.285156 1.523438 -3.09375 1.734375 -2.84375 C 1.941406 -2.59375 2.085938 -2.40625 2.171875 -2.28125 C 2.347656 -2.007812 2.398438 -1.71875 2.328125 -1.40625 C 2.265625 -1.101562 2.085938 -0.859375 1.796875 -0.671875 C 1.515625 -0.484375 1.21875 -0.414062 0.90625 -0.46875 C 0.601562 -0.53125 0.363281 -0.695312 0.1875 -0.96875 C 0.101562 -1.09375 -0.0390625 -1.28125 -0.25 -1.53125 C -0.457031 -1.78125 -0.609375 -1.972656 -0.703125 -2.109375 C -1.003906 -2.566406 -1.390625 -3.226562 -1.859375 -4.09375 C -2.328125 -4.957031 -2.710938 -5.617188 -3.015625 -6.078125 C -3.117188 -6.222656 -3.269531 -6.429688 -3.46875 -6.703125 C -3.664062 -6.972656 -3.8125 -7.179688 -3.90625 -7.328125 C -4.082031 -7.585938 -4.128906 -7.867188 -4.046875 -8.171875 C -3.972656 -8.472656 -3.796875 -8.71875 -3.515625 -8.90625 C -2.890625 -9.320312 -2.3125 -9.171875 -1.78125 -8.453125 L -1.734375 -8.375 C -1.492188 -9.53125 -0.984375 -10.363281 -0.203125 -10.875 C 0.691406 -11.46875 1.566406 -11.503906 2.421875 -10.984375 C 2.972656 -10.617188 3.582031 -9.929688 4.25 -8.921875 L 4.578125 -8.40625 C 4.722656 -8.195312 4.828125 -8.046875 4.890625 -7.953125 C 5.128906 -7.578125 5.492188 -7.128906 5.984375 -6.609375 C 6.484375 -6.097656 6.851562 -5.65625 7.09375 -5.28125 C 7.269531 -5.019531 7.316406 -4.734375 7.234375 -4.421875 C 7.160156 -4.117188 6.984375 -3.875 6.703125 -3.6875 Z M 6.703125 -3.6875 "/></g></g></g></svg>